<svg width="376" height="812" viewBox="0 0 376 812" fill="none" xmlns="http://www.w3.org/2000/svg">
<g clip-path="url(#clip0_1430_34)">
<rect width="376" height="812" fill="#141414"/>
<g filter="url(#filter0_f_1430_34)">
<path d="M-13 558.632C0.864939 540.995 41.7232 507.768 94.2366 515.961C146.75 524.154 209.272 564.606 252.167 573.14C295.062 581.674 356.804 579.285 388 532.176" stroke="#1E1D1D"/>
<path d="M-13 558.632C0.864939 540.995 41.7232 507.768 94.2366 515.961C146.75 524.154 209.272 564.606 252.167 573.14C295.062 581.674 356.804 579.285 388 532.176" stroke="#1E1D1D"/>
<path d="M-13 558.632C0.864939 540.995 41.7232 507.768 94.2366 515.961C146.75 524.154 209.272 564.606 252.167 573.14C295.062 581.674 356.804 579.285 388 532.176" stroke="#1E1D1D"/>
<path d="M-13 558.632C0.864939 540.995 41.7232 507.768 94.2366 515.961C146.75 524.154 209.272 564.606 252.167 573.14C295.062 581.674 356.804 579.285 388 532.176" stroke="#1E1D1D"/>
<path d="M-13 172.948C0.864939 155.311 41.7232 122.084 94.2366 130.277C146.75 138.47 209.272 178.922 252.167 187.456C295.062 195.99 356.804 193.601 388 146.492" stroke="#1E1D1D"/>
<path d="M-13 172.948C0.864939 155.311 41.7232 122.084 94.2366 130.277C146.75 138.47 209.272 178.922 252.167 187.456C295.062 195.99 356.804 193.601 388 146.492" stroke="#1E1D1D"/>
<path d="M-13 172.948C0.864939 155.311 41.7232 122.084 94.2366 130.277C146.75 138.47 209.272 178.922 252.167 187.456C295.062 195.99 356.804 193.601 388 146.492" stroke="#1E1D1D"/>
<path d="M-13 172.948C0.864939 155.311 41.7232 122.084 94.2366 130.277C146.75 138.47 209.272 178.922 252.167 187.456C295.062 195.99 356.804 193.601 388 146.492" stroke="#1E1D1D"/>
<path d="M-13 523.57C0.864939 505.933 41.7232 472.706 94.2366 480.899C146.75 489.092 209.272 529.544 252.167 538.078C295.062 546.612 356.804 544.223 388 497.114" stroke="#1E1D1D"/>
<path d="M-13 488.508C0.864939 470.871 41.7232 437.644 94.2366 445.837C146.75 454.03 209.272 494.482 252.167 503.016C295.062 511.55 356.804 509.161 388 462.052" stroke="#1E1D1D"/>
<path d="M-13 453.446C0.864939 435.808 41.7232 402.582 94.2366 410.775C146.75 418.968 209.272 459.42 252.167 467.954C295.062 476.488 356.804 474.098 388 426.99" stroke="#1E1D1D"/>
<path d="M-13 418.384C0.864939 400.746 41.7232 367.52 94.2366 375.713C146.75 383.905 209.272 424.358 252.167 432.892C295.062 441.426 356.804 439.036 388 391.928" stroke="#1E1D1D"/>
<path d="M-13 383.321C0.864939 365.684 41.7232 332.458 94.2366 340.65C146.75 348.843 209.272 389.295 252.167 397.83C295.062 406.364 356.804 403.974 388 356.865" stroke="#1E1D1D"/>
<path d="M-13 348.259C0.864939 330.622 41.7232 297.395 94.2366 305.588C146.75 313.781 209.272 354.233 252.167 362.767C295.062 371.301 356.804 368.912 388 321.803" stroke="#1E1D1D"/>
<path d="M-13 313.197C0.864939 295.56 41.7232 262.333 94.2366 270.526C146.75 278.719 209.272 319.171 252.167 327.705C295.062 336.239 356.804 333.85 388 286.741" stroke="#1E1D1D"/>
<path d="M-13 278.135C0.864939 260.497 41.7232 227.271 94.2366 235.464C146.75 243.656 209.272 284.109 252.167 292.643C295.062 301.177 356.804 298.787 388 251.679" stroke="#1E1D1D"/>
<path d="M-13 243.073C0.864939 225.435 41.7232 192.209 94.2366 200.402C146.75 208.594 209.272 249.047 252.167 257.581C295.062 266.115 356.804 263.725 388 216.617" stroke="#1E1D1D"/>
<path d="M-13 208.01C0.864939 190.373 41.7232 157.147 94.2366 165.339C146.75 173.532 209.272 213.984 252.167 222.518C295.062 231.053 356.804 228.663 388 181.554" stroke="#1E1D1D"/>
</g>
</g>
<defs>
<filter id="filter0_f_1430_34" x="-15.3936" y="126.5" width="405.811" height="453" filterUnits="userSpaceOnUse" color-interpolation-filters="sRGB">
<feFlood flood-opacity="0" result="BackgroundImageFix"/>
<feBlend mode="normal" in="SourceGraphic" in2="BackgroundImageFix" result="shape"/>
<feGaussianBlur stdDeviation="1" result="effect1_foregroundBlur_1430_34"/>
</filter>
<clipPath id="clip0_1430_34">
<rect width="376" height="812" fill="white"/>
</clipPath>
</defs>
</svg>
